<svg
  xmlns="http://www.w3.org/2000/svg"
  viewBox="0 0 400 560"
  width="400"
  height="560"
>
  <defs>
    <!-- Gradient for background depth -->
    <radialGradient id="bgGrad" cx="50%" cy="50%" r="60%">
      <stop offset="0%" stop-color="#408A71" />
      <stop offset="100%" stop-color="#285A48" />
    </radialGradient>
    <!-- Gradient for oval frame -->
    <radialGradient id="ovalGrad" cx="50%" cy="40%" r="55%">
      <stop offset="0%" stop-color="#1e4535" />
      <stop offset="100%" stop-color="#091413" />
    </radialGradient>
  </defs>

  <!-- ===================== BACKGROUND ===================== -->
  <rect width="400" height="560" rx="8" ry="8" fill="url(#bgGrad)" />

  <!-- ===================== LAYER 1: OUTER BORDER ===================== -->
  <rect
    x="10"
    y="10"
    width="380"
    height="540"
    rx="5"
    ry="5"
    fill="none"
    stroke="#B0E4CC"
    stroke-width="2"
  />

  <!-- ===================== LAYER 2: INNER BORDER ===================== -->
  <rect
    x="20"
    y="20"
    width="360"
    height="520"
    rx="4"
    ry="4"
    fill="none"
    stroke="#B0E4CC"
    stroke-width="1"
    opacity="0.7"
  />

  <!-- ===================== LAYER 3: VINE/FLORAL BORDER PATTERN ===================== -->
  <!-- TOP VINE -->
  <!-- Left half top vine -->
  <g stroke="#B0E4CC" stroke-width="1.2" fill="none" opacity="0.85">
    <!-- Top edge vine - left side -->
    <path
      d="M25,30 Q40,22 55,30 Q70,38 85,30 Q100,22 115,30 Q130,38 145,30 Q160,22 175,30 Q190,38 200,32"
    />
    <!-- Leaf details top left -->
    <path d="M40,26 Q44,20 48,24" />
    <path d="M70,34 Q74,28 78,32" />
    <path d="M100,26 Q104,20 108,24" />
    <path d="M130,34 Q134,28 138,32" />
    <path d="M160,26 Q164,20 168,24" />
    <!-- Dots/berries top left -->
    <circle cx="55" cy="30" r="1.5" fill="#B0E4CC" />
    <circle cx="85" cy="30" r="1.5" fill="#B0E4CC" />
    <circle cx="115" cy="30" r="1.5" fill="#B0E4CC" />
    <circle cx="145" cy="30" r="1.5" fill="#B0E4CC" />
    <circle cx="175" cy="30" r="1.5" fill="#B0E4CC" />
  </g>
  <!-- Top edge vine - right side (mirrored) -->
  <g
    stroke="#B0E4CC"
    stroke-width="1.2"
    fill="none"
    opacity="0.85"
    transform="translate(400,0) scale(-1,1)"
  >
    <path
      d="M25,30 Q40,22 55,30 Q70,38 85,30 Q100,22 115,30 Q130,38 145,30 Q160,22 175,30 Q190,38 200,32"
    />
    <path d="M40,26 Q44,20 48,24" />
    <path d="M70,34 Q74,28 78,32" />
    <path d="M100,26 Q104,20 108,24" />
    <path d="M130,34 Q134,28 138,32" />
    <path d="M160,26 Q164,20 168,24" />
    <circle cx="55" cy="30" r="1.5" fill="#B0E4CC" />
    <circle cx="85" cy="30" r="1.5" fill="#B0E4CC" />
    <circle cx="115" cy="30" r="1.5" fill="#B0E4CC" />
    <circle cx="145" cy="30" r="1.5" fill="#B0E4CC" />
    <circle cx="175" cy="30" r="1.5" fill="#B0E4CC" />
  </g>

  <!-- BOTTOM VINE -->
  <g stroke="#B0E4CC" stroke-width="1.2" fill="none" opacity="0.85">
    <path
      d="M25,530 Q40,538 55,530 Q70,522 85,530 Q100,538 115,530 Q130,522 145,530 Q160,538 175,530 Q190,522 200,528"
    />
    <path d="M40,534 Q44,540 48,536" />
    <path d="M70,526 Q74,532 78,528" />
    <path d="M100,534 Q104,540 108,536" />
    <path d="M130,526 Q134,532 138,528" />
    <path d="M160,534 Q164,540 168,536" />
    <circle cx="55" cy="530" r="1.5" fill="#B0E4CC" />
    <circle cx="85" cy="530" r="1.5" fill="#B0E4CC" />
    <circle cx="115" cy="530" r="1.5" fill="#B0E4CC" />
    <circle cx="145" cy="530" r="1.5" fill="#B0E4CC" />
    <circle cx="175" cy="530" r="1.5" fill="#B0E4CC" />
  </g>
  <!-- Bottom vine right side (mirrored) -->
  <g
    stroke="#B0E4CC"
    stroke-width="1.2"
    fill="none"
    opacity="0.85"
    transform="translate(400,0) scale(-1,1)"
  >
    <path
      d="M25,530 Q40,538 55,530 Q70,522 85,530 Q100,538 115,530 Q130,522 145,530 Q160,538 175,530 Q190,522 200,528"
    />
    <path d="M40,534 Q44,540 48,536" />
    <path d="M70,526 Q74,532 78,528" />
    <path d="M100,534 Q104,540 108,536" />
    <path d="M130,526 Q134,532 138,528" />
    <path d="M160,534 Q164,540 168,536" />
    <circle cx="55" cy="530" r="1.5" fill="#B0E4CC" />
    <circle cx="85" cy="530" r="1.5" fill="#B0E4CC" />
    <circle cx="115" cy="530" r="1.5" fill="#B0E4CC" />
    <circle cx="145" cy="530" r="1.5" fill="#B0E4CC" />
    <circle cx="175" cy="530" r="1.5" fill="#B0E4CC" />
  </g>

  <!-- LEFT VINE -->
  <g stroke="#B0E4CC" stroke-width="1.2" fill="none" opacity="0.85">
    <path
      d="M30,35 Q22,55 30,75 Q38,95 30,115 Q22,135 30,155 Q38,175 30,195 Q22,215 30,235 Q38,255 30,275"
    />
    <path d="M26,55 Q20,59 24,63" />
    <path d="M34,95 Q28,99 32,103" />
    <path d="M26,135 Q20,139 24,143" />
    <path d="M34,175 Q28,179 32,183" />
    <path d="M26,215 Q20,219 24,223" />
    <path d="M34,255 Q28,259 32,263" />
    <circle cx="30" cy="75" r="1.5" fill="#B0E4CC" />
    <circle cx="30" cy="115" r="1.5" fill="#B0E4CC" />
    <circle cx="30" cy="155" r="1.5" fill="#B0E4CC" />
    <circle cx="30" cy="195" r="1.5" fill="#B0E4CC" />
    <circle cx="30" cy="235" r="1.5" fill="#B0E4CC" />
  </g>
  <!-- Left vine lower half -->
  <g stroke="#B0E4CC" stroke-width="1.2" fill="none" opacity="0.85">
    <path
      d="M30,285 Q22,305 30,325 Q38,345 30,365 Q22,385 30,405 Q38,425 30,445 Q22,465 30,485 Q38,505 30,525"
    />
    <path d="M26,305 Q20,309 24,313" />
    <path d="M34,345 Q28,349 32,353" />
    <path d="M26,385 Q20,389 24,393" />
    <path d="M34,425 Q28,429 32,433" />
    <path d="M26,465 Q20,469 24,473" />
    <path d="M34,505 Q28,509 32,513" />
    <circle cx="30" cy="325" r="1.5" fill="#B0E4CC" />
    <circle cx="30" cy="365" r="1.5" fill="#B0E4CC" />
    <circle cx="30" cy="405" r="1.5" fill="#B0E4CC" />
    <circle cx="30" cy="445" r="1.5" fill="#B0E4CC" />
    <circle cx="30" cy="485" r="1.5" fill="#B0E4CC" />
  </g>

  <!-- RIGHT VINE (mirrored from left) -->
  <g transform="translate(400,0) scale(-1,1)">
    <g stroke="#B0E4CC" stroke-width="1.2" fill="none" opacity="0.85">
      <path
        d="M30,35 Q22,55 30,75 Q38,95 30,115 Q22,135 30,155 Q38,175 30,195 Q22,215 30,235 Q38,255 30,275"
      />
      <path d="M26,55 Q20,59 24,63" />
      <path d="M34,95 Q28,99 32,103" />
      <path d="M26,135 Q20,139 24,143" />
      <path d="M34,175 Q28,179 32,183" />
      <path d="M26,215 Q20,219 24,223" />
      <path d="M34,255 Q28,259 32,263" />
      <circle cx="30" cy="75" r="1.5" fill="#B0E4CC" />
      <circle cx="30" cy="115" r="1.5" fill="#B0E4CC" />
      <circle cx="30" cy="155" r="1.5" fill="#B0E4CC" />
      <circle cx="30" cy="195" r="1.5" fill="#B0E4CC" />
      <circle cx="30" cy="235" r="1.5" fill="#B0E4CC" />
    </g>
    <g stroke="#B0E4CC" stroke-width="1.2" fill="none" opacity="0.85">
      <path
        d="M30,285 Q22,305 30,325 Q38,345 30,365 Q22,385 30,405 Q38,425 30,445 Q22,465 30,485 Q38,505 30,525"
      />
      <path d="M26,305 Q20,309 24,313" />
      <path d="M34,345 Q28,349 32,353" />
      <path d="M26,385 Q20,389 24,393" />
      <path d="M34,425 Q28,429 32,433" />
      <path d="M26,465 Q20,469 24,473" />
      <path d="M34,505 Q28,509 32,513" />
      <circle cx="30" cy="325" r="1.5" fill="#B0E4CC" />
      <circle cx="30" cy="365" r="1.5" fill="#B0E4CC" />
      <circle cx="30" cy="405" r="1.5" fill="#B0E4CC" />
      <circle cx="30" cy="445" r="1.5" fill="#B0E4CC" />
      <circle cx="30" cy="485" r="1.5" fill="#B0E4CC" />
    </g>
  </g>

  <!-- ===================== LAYER 4: CORNER FLOURISHES ===================== -->
  <!-- TOP-LEFT CORNER FLOURISH -->
  <g stroke="#B0E4CC" stroke-width="1.3" fill="none" opacity="0.95">
    <!-- Main corner curves -->
    <path d="M15,50 Q25,35 50,25 Q35,40 30,55" />
    <path d="M15,60 Q30,42 60,30" />
    <!-- Petal left -->
    <path d="M25,45 Q18,38 22,30 Q30,35 25,45" />
    <!-- Petal right -->
    <path d="M45,25 Q52,18 58,22 Q53,30 45,25" />
    <!-- Leaf curl top-left -->
    <path d="M20,55 Q14,48 18,42 Q24,46 20,55" />
    <!-- Leaf curl bottom -->
    <path d="M55,20 Q62,14 66,20 Q60,26 55,20" />
    <!-- Stem with small leaves -->
    <path d="M30,50 Q40,38 55,28" />
    <path d="M35,44 Q32,38 36,34" />
    <path d="M44,37 Q41,31 45,27" />
    <!-- Flower center -->
    <circle
      cx="35"
      cy="42"
      r="3"
      fill="#408A71"
      stroke="#B0E4CC"
      stroke-width="1"
    />
    <circle cx="35" cy="42" r="1.5" fill="#B0E4CC" />
    <!-- Small decorative dots -->
    <circle cx="22" cy="32" r="1.2" fill="#B0E4CC" />
    <circle cx="58" cy="22" r="1.2" fill="#B0E4CC" />
    <circle cx="18" cy="48" r="1" fill="#B0E4CC" />
    <circle cx="62" cy="18" r="1" fill="#B0E4CC" />
  </g>

  <!-- TOP-RIGHT CORNER FLOURISH (mirrored) -->
  <g
    transform="translate(400,0) scale(-1,1)"
    stroke="#B0E4CC"
    stroke-width="1.3"
    fill="none"
    opacity="0.95"
  >
    <path d="M15,50 Q25,35 50,25 Q35,40 30,55" />
    <path d="M15,60 Q30,42 60,30" />
    <path d="M25,45 Q18,38 22,30 Q30,35 25,45" />
    <path d="M45,25 Q52,18 58,22 Q53,30 45,25" />
    <path d="M20,55 Q14,48 18,42 Q24,46 20,55" />
    <path d="M55,20 Q62,14 66,20 Q60,26 55,20" />
    <path d="M30,50 Q40,38 55,28" />
    <path d="M35,44 Q32,38 36,34" />
    <path d="M44,37 Q41,31 45,27" />
    <circle
      cx="35"
      cy="42"
      r="3"
      fill="#408A71"
      stroke="#B0E4CC"
      stroke-width="1"
    />
    <circle cx="35" cy="42" r="1.5" fill="#B0E4CC" />
    <circle cx="22" cy="32" r="1.2" fill="#B0E4CC" />
    <circle cx="58" cy="22" r="1.2" fill="#B0E4CC" />
    <circle cx="18" cy="48" r="1" fill="#B0E4CC" />
    <circle cx="62" cy="18" r="1" fill="#B0E4CC" />
  </g>

  <!-- BOTTOM-LEFT CORNER FLOURISH (mirrored vertically) -->
  <g
    transform="translate(0,560) scale(1,-1)"
    stroke="#B0E4CC"
    stroke-width="1.3"
    fill="none"
    opacity="0.95"
  >
    <path d="M15,50 Q25,35 50,25 Q35,40 30,55" />
    <path d="M15,60 Q30,42 60,30" />
    <path d="M25,45 Q18,38 22,30 Q30,35 25,45" />
    <path d="M45,25 Q52,18 58,22 Q53,30 45,25" />
    <path d="M20,55 Q14,48 18,42 Q24,46 20,55" />
    <path d="M55,20 Q62,14 66,20 Q60,26 55,20" />
    <path d="M30,50 Q40,38 55,28" />
    <path d="M35,44 Q32,38 36,34" />
    <path d="M44,37 Q41,31 45,27" />
    <circle
      cx="35"
      cy="42"
      r="3"
      fill="#408A71"
      stroke="#B0E4CC"
      stroke-width="1"
    />
    <circle cx="35" cy="42" r="1.5" fill="#B0E4CC" />
    <circle cx="22" cy="32" r="1.2" fill="#B0E4CC" />
    <circle cx="58" cy="22" r="1.2" fill="#B0E4CC" />
    <circle cx="18" cy="48" r="1" fill="#B0E4CC" />
    <circle cx="62" cy="18" r="1" fill="#B0E4CC" />
  </g>

  <!-- BOTTOM-RIGHT CORNER FLOURISH (mirrored both axes) -->
  <g
    transform="translate(400,560) scale(-1,-1)"
    stroke="#B0E4CC"
    stroke-width="1.3"
    fill="none"
    opacity="0.95"
  >
    <path d="M15,50 Q25,35 50,25 Q35,40 30,55" />
    <path d="M15,60 Q30,42 60,30" />
    <path d="M25,45 Q18,38 22,30 Q30,35 25,45" />
    <path d="M45,25 Q52,18 58,22 Q53,30 45,25" />
    <path d="M20,55 Q14,48 18,42 Q24,46 20,55" />
    <path d="M55,20 Q62,14 66,20 Q60,26 55,20" />
    <path d="M30,50 Q40,38 55,28" />
    <path d="M35,44 Q32,38 36,34" />
    <path d="M44,37 Q41,31 45,27" />
    <circle
      cx="35"
      cy="42"
      r="3"
      fill="#408A71"
      stroke="#B0E4CC"
      stroke-width="1"
    />
    <circle cx="35" cy="42" r="1.5" fill="#B0E4CC" />
    <circle cx="22" cy="32" r="1.2" fill="#B0E4CC" />
    <circle cx="58" cy="22" r="1.2" fill="#B0E4CC" />
    <circle cx="18" cy="48" r="1" fill="#B0E4CC" />
    <circle cx="62" cy="18" r="1" fill="#B0E4CC" />
  </g>

  <!-- ===================== LAYER 5: CENTRAL OVAL/ARCH FRAME ===================== -->
  <!-- Outer arch frame shape: arch top + oval bottom -->
  <!-- Dark background for the frame area -->
  <path
    d="M110,100 Q110,70 200,70 Q290,70 290,100 L290,420 Q290,460 200,460 Q110,460 110,420 Z"
    fill="url(#ovalGrad)"
    stroke="none"
  />

  <!-- Outer frame border -->
  <path
    d="M110,100 Q110,70 200,70 Q290,70 290,100 L290,420 Q290,460 200,460 Q110,460 110,420 Z"
    fill="none"
    stroke="#B0E4CC"
    stroke-width="2"
  />

  <!-- Inner frame border (inset) -->
  <path
    d="M120,105 Q120,82 200,82 Q280,82 280,105 L280,415 Q280,450 200,450 Q120,450 120,415 Z"
    fill="none"
    stroke="#B0E4CC"
    stroke-width="1"
    opacity="0.6"
  />

  <!-- ===================== SURROUNDING FLORAL VINES ON OVAL ===================== -->
  <!-- Left side floral vines around oval - LEFT HALF -->
  <g stroke="#B0E4CC" stroke-width="1.1" fill="none" opacity="0.9">
    <!-- Left outer vine -->
    <path
      d="M108,120 Q90,140 95,165 Q100,190 88,210 Q76,230 90,255 Q104,280 88,305 Q72,330 90,355 Q108,380 100,405 Q92,430 112,445"
    />
    <!-- Left vine leaves -->
    <path d="M95,140 Q85,135 82,143 Q88,150 95,140" />
    <path d="M92,170 Q82,165 80,175 Q87,180 92,170" />
    <path d="M88,215 Q78,210 76,220 Q84,225 88,215" />
    <path d="M90,260 Q80,255 78,265 Q86,270 90,260" />
    <path d="M88,310 Q78,305 76,315 Q84,320 88,310" />
    <path d="M92,360 Q82,355 80,365 Q88,370 92,360" />
    <path d="M100,410 Q90,405 88,415 Q96,420 100,410" />
    <!-- Left vine small flowers -->
    <circle
      cx="90"
      cy="155"
      r="2.5"
      fill="#408A71"
      stroke="#B0E4CC"
      stroke-width="0.8"
    />
    <circle
      cx="88"
      cy="230"
      r="2.5"
      fill="#408A71"
      stroke="#B0E4CC"
      stroke-width="0.8"
    />
    <circle
      cx="88"
      cy="305"
      r="2.5"
      fill="#408A71"
      stroke="#B0E4CC"
      stroke-width="0.8"
    />
    <circle
      cx="100"
      cy="380"
      r="2.5"
      fill="#408A71"
      stroke="#B0E4CC"
      stroke-width="0.8"
    />
    <!-- Connecting tendrils -->
    <path d="M95,165 Q105,155 110,165" />
    <path d="M90,255 Q100,245 108,250" />
    <path d="M90,355 Q100,345 108,350" />
  </g>

  <!-- Right side floral vines (mirrored) -->
  <g
    transform="translate(400,0) scale(-1,1)"
    stroke="#B0E4CC"
    stroke-width="1.1"
    fill="none"
    opacity="0.9"
  >
    <path
      d="M108,120 Q90,140 95,165 Q100,190 88,210 Q76,230 90,255 Q104,280 88,305 Q72,330 90,355 Q108,380 100,405 Q92,430 112,445"
    />
    <path d="M95,140 Q85,135 82,143 Q88,150 95,140" />
    <path d="M92,170 Q82,165 80,175 Q87,180 92,170" />
    <path d="M88,215 Q78,210 76,220 Q84,225 88,215" />
    <path d="M90,260 Q80,255 78,265 Q86,270 90,260" />
    <path d="M88,310 Q78,305 76,315 Q84,320 88,310" />
    <path d="M92,360 Q82,355 80,365 Q88,370 92,360" />
    <path d="M100,410 Q90,405 88,415 Q96,420 100,410" />
    <circle
      cx="90"
      cy="155"
      r="2.5"
      fill="#408A71"
      stroke="#B0E4CC"
      stroke-width="0.8"
    />
    <circle
      cx="88"
      cy="230"
      r="2.5"
      fill="#408A71"
      stroke="#B0E4CC"
      stroke-width="0.8"
    />
    <circle
      cx="88"
      cy="305"
      r="2.5"
      fill="#408A71"
      stroke="#B0E4CC"
      stroke-width="0.8"
    />
    <circle
      cx="100"
      cy="380"
      r="2.5"
      fill="#408A71"
      stroke="#B0E4CC"
      stroke-width="0.8"
    />
    <path d="M95,165 Q105,155 110,165" />
    <path d="M90,255 Q100,245 108,250" />
    <path d="M90,355 Q100,345 108,350" />
  </g>

  <!-- Top arch floral decoration - left half -->
  <g stroke="#B0E4CC" stroke-width="1.1" fill="none" opacity="0.9">
    <path d="M115,100 Q130,75 155,72 Q170,70 185,72" />
    <path d="M125,88 Q120,80 126,76 Q132,80 125,88" />
    <path d="M145,76 Q142,68 148,66 Q154,70 145,76" />
    <path d="M165,72 Q163,64 169,63 Q175,67 165,72" />
    <circle
      cx="135"
      cy="82"
      r="2"
      fill="#408A71"
      stroke="#B0E4CC"
      stroke-width="0.8"
    />
    <circle
      cx="155"
      cy="72"
      r="2"
      fill="#408A71"
      stroke="#B0E4CC"
      stroke-width="0.8"
    />
  </g>
  <!-- Top arch floral decoration - right half (mirrored) -->
  <g
    transform="translate(400,0) scale(-1,1)"
    stroke="#B0E4CC"
    stroke-width="1.1"
    fill="none"
    opacity="0.9"
  >
    <path d="M115,100 Q130,75 155,72 Q170,70 185,72" />
    <path d="M125,88 Q120,80 126,76 Q132,80 125,88" />
    <path d="M145,76 Q142,68 148,66 Q154,70 145,76" />
    <path d="M165,72 Q163,64 169,63 Q175,67 165,72" />
    <circle
      cx="135"
      cy="82"
      r="2"
      fill="#408A71"
      stroke="#B0E4CC"
      stroke-width="0.8"
    />
    <circle
      cx="155"
      cy="72"
      r="2"
      fill="#408A71"
      stroke="#B0E4CC"
      stroke-width="0.8"
    />
  </g>

  <!-- Bottom oval floral decoration - left half -->
  <g stroke="#B0E4CC" stroke-width="1.1" fill="none" opacity="0.9">
    <path d="M115,440 Q130,465 155,468 Q170,470 185,468" />
    <path d="M125,452 Q120,460 126,464 Q132,460 125,452" />
    <path d="M145,464 Q142,472 148,474 Q154,470 145,464" />
    <path d="M165,468 Q163,476 169,477 Q175,473 165,468" />
    <circle
      cx="135"
      cy="458"
      r="2"
      fill="#408A71"
      stroke="#B0E4CC"
      stroke-width="0.8"
    />
    <circle
      cx="155"
      cy="468"
      r="2"
      fill="#408A71"
      stroke="#B0E4CC"
      stroke-width="0.8"
    />
  </g>
  <!-- Bottom oval floral decoration - right half (mirrored) -->
  <g
    transform="translate(400,0) scale(-1,1)"
    stroke="#B0E4CC"
    stroke-width="1.1"
    fill="none"
    opacity="0.9"
  >
    <path d="M115,440 Q130,465 155,468 Q170,470 185,468" />
    <path d="M125,452 Q120,460 126,464 Q132,460 125,452" />
    <path d="M145,464 Q142,472 148,474 Q154,470 145,464" />
    <path d="M165,468 Q163,476 169,477 Q175,473 165,468" />
    <circle
      cx="135"
      cy="458"
      r="2"
      fill="#408A71"
      stroke="#B0E4CC"
      stroke-width="0.8"
    />
    <circle
      cx="155"
      cy="468"
      r="2"
      fill="#408A71"
      stroke="#B0E4CC"
      stroke-width="0.8"
    />
  </g>

  <!-- ===================== LAYER 6: CROWN/CREST ORNAMENT ===================== -->
  <!-- Crown base -->
  <g stroke="#B0E4CC" stroke-width="1.3" fill="none">
    <!-- Crown arch -->
    <path d="M175,58 Q200,40 225,58" stroke-width="1.5" />
    <!-- Crown points -->
    <path d="M175,58 L172,48 L178,54" />
    <path d="M200,42 L200,32 Q200,28 200,32" />
    <path d="M225,58 L228,48 L222,54" />
    <!-- Left crown peak -->
    <path d="M182,55 L180,44 L186,50" />
    <!-- Right crown peak (mirrored) -->
    <path d="M218,55 L220,44 L214,50" />
    <!-- Crown base line -->
    <line x1="170" y1="60" x2="230" y2="60" stroke-width="1.5" />
    <!-- Crown decorative dots -->
    <circle cx="200" cy="32" r="3" fill="#B0E4CC" />
    <circle cx="180" cy="44" r="2" fill="#B0E4CC" />
    <circle cx="220" cy="44" r="2" fill="#B0E4CC" />
    <circle cx="172" cy="52" r="1.5" fill="#B0E4CC" />
    <circle cx="228" cy="52" r="1.5" fill="#B0E4CC" />
  </g>
  <!-- Crown floral emblem - central flower -->
  <g stroke="#B0E4CC" stroke-width="1" fill="none">
    <!-- Petals around center -->
    <path d="M200,48 Q203,44 200,40 Q197,44 200,48" />
    <path d="M200,48 Q204,50 207,47 Q204,44 200,48" />
    <path d="M200,48 Q204,52 200,55 Q196,52 200,48" />
    <path d="M200,48 Q196,50 193,47 Q196,44 200,48" />
    <circle
      cx="200"
      cy="48"
      r="2.5"
      fill="#408A71"
      stroke="#B0E4CC"
      stroke-width="1"
    />
    <circle cx="200" cy="48" r="1" fill="#B0E4CC" />
  </g>
  <!-- Crest side flourishes -->
  <g stroke="#B0E4CC" stroke-width="1" fill="none" opacity="0.85">
    <!-- Left crest flourish -->
    <path d="M165,62 Q155,55 150,62 Q155,68 165,62" />
    <path d="M160,58 Q152,52 148,58" />
    <circle cx="152" cy="60" r="1.5" fill="#B0E4CC" />
    <!-- Right crest flourish (mirrored) -->
    <path d="M235,62 Q245,55 250,62 Q245,68 235,62" />
    <path d="M240,58 Q248,52 252,58" />
    <circle cx="248" cy="60" r="1.5" fill="#B0E4CC" />
  </g>

  <!-- ===================== LAYER 7: ORNAMENTAL DIVIDERS ===================== -->
  <!-- Top divider (between title area and subtitle) -->
  <!-- Diamond ends + horizontal line -->
  <g stroke="#B0E4CC" stroke-width="1.2" fill="none">
    <!-- Left diamond -->
    <polygon
      points="130,200 136,196 142,200 136,204"
      fill="#B0E4CC"
      opacity="0.8"
    />
    <!-- Right diamond -->
    <polygon
      points="258,200 264,196 270,200 264,204"
      fill="#B0E4CC"
      opacity="0.8"
    />
    <!-- Horizontal lines -->
    <line
      x1="142"
      y1="200"
      x2="258"
      y2="200"
      stroke="#B0E4CC"
      stroke-width="1"
    />
    <!-- Small decorative elements on divider -->
    <circle cx="165" cy="200" r="1.5" fill="#B0E4CC" />
    <circle cx="185" cy="200" r="1.5" fill="#B0E4CC" />
    <circle cx="200" cy="200" r="2" fill="#B0E4CC" />
    <circle cx="215" cy="200" r="1.5" fill="#B0E4CC" />
    <circle cx="235" cy="200" r="1.5" fill="#B0E4CC" />
    <!-- Tiny flourish above center -->
    <path d="M196,200 Q200,194 204,200" stroke-width="0.8" />
  </g>

  <!-- Bottom divider (below subtitle area) -->
  <g stroke="#B0E4CC" stroke-width="1.2" fill="none">
    <!-- Left diamond -->
    <polygon
      points="130,380 136,376 142,380 136,384"
      fill="#B0E4CC"
      opacity="0.8"
    />
    <!-- Right diamond -->
    <polygon
      points="258,380 264,376 270,380 264,384"
      fill="#B0E4CC"
      opacity="0.8"
    />
    <!-- Horizontal lines -->
    <line
      x1="142"
      y1="380"
      x2="258"
      y2="380"
      stroke="#B0E4CC"
      stroke-width="1"
    />
    <!-- Small decorative elements on divider -->
    <circle cx="165" cy="380" r="1.5" fill="#B0E4CC" />
    <circle cx="185" cy="380" r="1.5" fill="#B0E4CC" />
    <circle cx="200" cy="380" r="2" fill="#B0E4CC" />
    <circle cx="215" cy="380" r="1.5" fill="#B0E4CC" />
    <circle cx="235" cy="380" r="1.5" fill="#B0E4CC" />
    <!-- Tiny flourish below center -->
    <path d="M196,380 Q200,386 204,380" stroke-width="0.8" />
  </g>

  <!-- ===================== ADDITIONAL DECORATIVE ELEMENTS ===================== -->
  <!-- Mid-side decorative medallions -->
  <!-- Left side medallion -->
  <g stroke="#B0E4CC" stroke-width="1" fill="none" opacity="0.7">
    <circle cx="25" cy="280" r="6" stroke-width="1.2" />
    <circle cx="25" cy="280" r="3" fill="#408A71" stroke="#B0E4CC" />
    <path d="M19,280 Q22,274 25,280" />
    <path d="M31,280 Q28,274 25,280" />
    <path d="M25,274 Q31,277 25,280" />
    <path d="M25,286 Q31,283 25,280" />
  </g>
  <!-- Right side medallion (mirrored) -->
  <g
    transform="translate(400,0) scale(-1,1)"
    stroke="#B0E4CC"
    stroke-width="1"
    fill="none"
    opacity="0.7"
  >
    <circle cx="25" cy="280" r="6" stroke-width="1.2" />
    <circle cx="25" cy="280" r="3" fill="#408A71" stroke="#B0E4CC" />
    <path d="M19,280 Q22,274 25,280" />
    <path d="M31,280 Q28,274 25,280" />
    <path d="M25,274 Q31,277 25,280" />
    <path d="M25,286 Q31,283 25,280" />
  </g>

  <!-- Top center decorative element between border and arch -->
  <g stroke="#B0E4CC" stroke-width="1" fill="none" opacity="0.8">
    <line x1="60" y1="42" x2="135" y2="42" stroke-width="0.8" />
    <circle cx="60" cy="42" r="1.5" fill="#B0E4CC" />
    <circle cx="97" cy="42" r="2" fill="#408A71" stroke="#B0E4CC" />
    <circle cx="135" cy="42" r="1.5" fill="#B0E4CC" />
  </g>
  <g
    transform="translate(400,0) scale(-1,1)"
    stroke="#B0E4CC"
    stroke-width="1"
    fill="none"
    opacity="0.8"
  >
    <line x1="60" y1="42" x2="135" y2="42" stroke-width="0.8" />
    <circle cx="60" cy="42" r="1.5" fill="#B0E4CC" />
    <circle cx="97" cy="42" r="2" fill="#408A71" stroke="#B0E4CC" />
    <circle cx="135" cy="42" r="1.5" fill="#B0E4CC" />
  </g>

  <!-- Bottom center decorative element -->
  <g stroke="#B0E4CC" stroke-width="1" fill="none" opacity="0.8">
    <line x1="60" y1="518" x2="135" y2="518" stroke-width="0.8" />
    <circle cx="60" cy="518" r="1.5" fill="#B0E4CC" />
    <circle cx="97" cy="518" r="2" fill="#408A71" stroke="#B0E4CC" />
    <circle cx="135" cy="518" r="1.5" fill="#B0E4CC" />
  </g>
  <g
    transform="translate(400,0) scale(-1,1)"
    stroke="#B0E4CC"
    stroke-width="1"
    fill="none"
    opacity="0.8"
  >
    <line x1="60" y1="518" x2="135" y2="518" stroke-width="0.8" />
    <circle cx="60" cy="518" r="1.5" fill="#B0E4CC" />
    <circle cx="97" cy="518" r="2" fill="#408A71" stroke="#B0E4CC" />
    <circle cx="135" cy="518" r="1.5" fill="#B0E4CC" />
  </g>

  <!-- ===================== TEXT PLACEHOLDER AREAS ===================== -->
  <!-- Title area 1 (large title - 2 lines) -->
  <!-- Placeholder guide lines (very subtle, can be removed) -->
  <rect
    x="130"
    y="215"
    width="140"
    height="40"
    rx="2"
    fill="#408A71"
    fill-opacity="0.08"
    stroke="none"
  />
  <rect
    x="130"
    y="260"
    width="140"
    height="40"
    rx="2"
    fill="#408A71"
    fill-opacity="0.08"
    stroke="none"
  />
  <!-- Subtitle area -->
  <rect
    x="140"
    y="330"
    width="120"
    height="30"
    rx="2"
    fill="#408A71"
    fill-opacity="0.08"
    stroke="none"
  />

  <!-- Small floral motif between title lines and subtitle -->
  <g stroke="#B0E4CC" stroke-width="0.9" fill="none" opacity="0.7">
    <path d="M188,310 Q200,304 212,310" />
    <circle
      cx="200"
      cy="308"
      r="2.5"
      fill="#408A71"
      stroke="#B0E4CC"
      stroke-width="0.8"
    />
    <circle cx="188" cy="311" r="1.2" fill="#B0E4CC" />
    <circle cx="212" cy="311" r="1.2" fill="#B0E4CC" />
  </g>

  <!-- Small floral motif at bottom of oval (below subtitle) -->
  <g stroke="#B0E4CC" stroke-width="0.9" fill="none" opacity="0.7">
    <path d="M185,405 Q200,398 215,405" />
    <path d="M185,405 Q182,412 185,418 Q190,412 185,405" />
    <path d="M215,405 Q218,412 215,418 Q210,412 215,405" />
    <circle
      cx="200"
      cy="403"
      r="3"
      fill="#408A71"
      stroke="#B0E4CC"
      stroke-width="0.8"
    />
    <circle cx="200" cy="403" r="1.2" fill="#B0E4CC" />
    <circle cx="190" cy="410" r="1.5" fill="#B0E4CC" />
    <circle cx="210" cy="410" r="1.5" fill="#B0E4CC" />
  </g>

  <!-- Small floral motif at top of oval (above title) -->
  <g stroke="#B0E4CC" stroke-width="0.9" fill="none" opacity="0.7">
    <path d="M185,155 Q200,148 215,155" />
    <path d="M185,155 Q182,162 185,168 Q190,162 185,155" />
    <path d="M215,155 Q218,162 215,168 Q210,162 215,155" />
    <circle
      cx="200"
      cy="153"
      r="3"
      fill="#408A71"
      stroke="#B0E4CC"
      stroke-width="0.8"
    />
    <circle cx="200" cy="153" r="1.2" fill="#B0E4CC" />
    <circle cx="190" cy="160" r="1.5" fill="#B0E4CC" />
    <circle cx="210" cy="160" r="1.5" fill="#B0E4CC" />
  </g>
</svg>
